# xmcd
#
# Track frame offsets:
#	150
#	14716
#	32197
#	47179
#	61160
#	75570
#	91441
#	107928
#	127773
#	141409
#
# Disc length: 2117 seconds
#
# Revision: 1
# Processed by: cddbd v1.5.2PL0 Copyright (c) Steve Scherf et al.
# Submitted via: audiograbber 1.83.01
#
DISCID=8708430a
DTITLE=Damielle Reddin - Just A Dream
DYEAR=1900
DGENRE=Country
TTITLE0=We're In This Love Together
TTITLE1=Oh I'm Cryin' Now
TTITLE2=The Danger Zone
TTITLE3=Was He Just A Dream
TTITLE4=Love Don't Get Much Better
TTITLE5=In A Perfect World
TTITLE6=We Don't Know Any Better
TTITLE7=Lonely Nights
TTITLE8=Four Letter Word
TTITLE9=If I Was An Angel
EXTD=
EXTT0=
EXTT1=
EXTT2=
EXTT3=
EXTT4=
EXTT5=
EXTT6=
EXTT7=
EXTT8=
EXTT9=
PLAYORDER=
